PathFileType	4	(X/Y/Z)	../Python\walking\Walking06\task.trc
DataRate	CameraRate	NumFrames	NumMarkers	Units	OrigDataRate	OrigDataStartFrame	OrigNumFrames
200.000000	200.000000	5	30	mm	200.000000	344	551
Frame#	Time	CLAV			STRN			RASI			RPSI			LPSI			LASI			RTH1			RTH2			RTH3			RTB1			RTB2			RTB3			RD5M			RTOE			LTH1			LTH3			LTB1			LTB2			LTB3			LTOE			LD5M			PE03			T10			PE01			LHEE			PE02			LTH2			C7			RHEE			RBAK			
		X1	Y1	Z1	X2	Y2	Z2	X3	Y3	Z3	X4	Y4	Z4	X5	Y5	Z5	X6	Y6	Z6	X7	Y7	Z7	X8	Y8	Z8	X9	Y9	Z9	X10	Y10	Z10	X11	Y11	Z11	X12	Y12	Z12	X13	Y13	Z13	X14	Y14	Z14	X15	Y15	Z15	X16	Y16	Z16	X17	Y17	Z17	X18	Y18	Z18	X19	Y19	Z19	X20	Y20	Z20	X21	Y21	Z21	X22	Y22	Z22	X23	Y23	Z23	X24	Y24	Z24	X25	Y25	Z25	X26	Y26	Z26	X27	Y27	Z27	X28	Y28	Z28	X29	Y29	Z29	X30	Y30	Z30	

345	1.72	1571.007568359376	1424.72216796875	145.9522857666016	1628.500122070313	1231.954467773438	148.2886352539063	1618.969116210938	1044.351684570313	291.6845703125001	1447.073120117188	1069.309692382813	217.2515563964845	1437.66845703125	1053.852172851563	118.7625732421876	1603.419433593751	991.1730957031255	22.18218231201173	1624.276489257813	786.4006958007817	338.7027893066407	1572.578002929688	752.7469482421877	343.0093688964845	1597.156250000001	713.0344238281252	324.0216369628907	1646.211669921876	371.6459960937501	267.8190917968751	1610.941162109376	321.640350341797	270.449432373047	1648.403442382813	293.5909729003907	254.0504760742189	1746.718750000001	18.72189712524415	237.6512908935548	1801.808837890626	34.95492935180665	194.2048492431642	1498.859985351563	684.9572753906252	8.834501266479496	1515.644897460938	607.8607177734377	13.13459396362305	1371.586547851563	397.1610412597659	19.38393211364747	1324.6923828125	393.4684753417971	34.26658248901369	1327.95849609375	331.3918762207032	28.64348793029787	1134.816040039063	64.14019012451175	114.511459350586	1107.076782226563	87.66619873046878	70.90626525878909	1434.262817382813	1044.90478515625	146.466781616211	1399.211791992188	1252.033081054688	142.8578033447266	1448.159301757813	1108.48193359375	159.3939971923829	1103.586547851563	259.9080810546876	98.06098937988287	1441.11376953125	1053.50732421875	196.6633148193361	1473.810791015625	648.555114746094	33.30465698242189	1450.757690429688	1509.391723632813	138.2585144042969	1587.782958984376	26.28853225708009	159.2232666015626	1440.12646484375	1427.093627929688	308.9662170410157	
346	1.725	1577.639526367188	1425.597045898438	145.7432098388672	1635.066406250001	1232.731201171875	148.1119537353516	1625.403808593751	1044.7119140625	291.823455810547	1453.49658203125	1070.166625976563	217.6605377197267	1444.04833984375	1054.559448242188	119.2435684204102	1609.517211914063	991.9694824218755	22.08024978637696	1628.588989257813	786.4303588867192	339.0482177734376	1576.523925781251	753.3057250976565	343.3545837402345	1600.618286132813	713.2834472656252	324.4416809082032	1647.254150390626	371.5457458496095	268.4196166992189	1611.636352539063	321.7344055175782	270.775604248047	1649.082763671876	293.5137023925782	254.568572998047	1746.686767578126	18.61019325256348	237.7520294189454	1801.813110351563	34.87533950805665	194.2173767089845	1508.677001953125	684.8552246093752	9.128852844238285	1526.764404296875	608.0903320312502	13.06114006042481	1385.781860351563	398.258483886719	18.51942253112794	1338.772583007813	395.1120300292971	33.25648498535158	1341.505493164063	332.9338378906251	28.07661628723146	1147.7431640625	66.78970336914065	111.2790145874024	1119.792846679688	91.29285430908206	68.2930603027344	1440.644165039063	1045.680053710938	146.9094848632813	1405.778930664063	1252.894287109375	143.0070800781251	1454.633544921875	1109.256958007813	159.7564544677735	1115.611450195313	262.9621887207032	98.14910125732428	1447.45458984375	1054.34423828125	197.0831909179689	1484.580078125	648.077575683594	33.85675430297853	1457.34326171875	1510.247436523438	138.157211303711	1587.669921875001	26.28194236755373	159.3499450683594	1446.937133789063	1427.934326171875	308.9894409179689	
347	1.73	1584.237304687501	1426.453125	145.5284271240235	1641.584350585938	1233.483276367188	147.9428405761719	1631.760986328126	1045.004028320313	292.0009155273439	1459.871704101563	1071.00537109375	218.0900115966798	1450.402954101563	1055.283447265625	119.7362136840821	1615.612548828126	992.8064575195317	21.98661422729493	1632.772949218751	786.4104003906255	339.397186279297	1580.350463867188	753.8072509765627	343.6538391113282	1603.996337890626	713.4934692382815	324.8306579589845	1648.320312500001	371.4725036621095	268.9235229492189	1612.377441406251	321.8450927734376	271.0599670410157	1649.796264648438	293.4581604003907	255.0116271972657	1746.656372070313	18.50531196594239	237.8552703857423	1801.813842773438	34.80035400390626	194.2238159179689	1518.357055664063	684.896179199219	9.399291992187504	1537.739257812501	608.484313964844	12.96876525878907	1399.95068359375	399.5666809082034	17.8178882598877	1352.826416015625	396.9079284667971	32.4991798400879	1355.068969726563	334.6492309570314	27.63843917846681	1161.479248046875	69.32075500488284	107.9287033081055	1133.279541015625	94.69353485107425	65.54341125488284	1446.9931640625	1046.458374023438	147.3620605468751	1412.301391601563	1253.74658203125	143.1832580566407	1461.066284179688	1110.031616210938	160.1522674560547	1127.683471679688	265.6692199707032	98.35253143310553	1453.747192382813	1055.1689453125	197.5168762207032	1495.241333007813	647.7711181640627	34.40496063232423	1463.8974609375	1511.093383789063	138.0503082275391	1587.554199218751	26.27951049804689	159.4720611572266	1453.719848632813	1428.771362304688	309.0210876464845	
348	1.735	1590.802001953126	1427.290405273438	145.3101348876954	1648.055908203126	1234.212524414063	147.7842864990235	1638.037353515626	1045.23681640625	292.2228088378907	1466.198364257813	1071.826904296875	218.5293121337892	1456.735107421875	1056.026611328125	120.2282485961915	1621.715820312501	993.6834106445317	21.91368484497071	1636.843994140626	786.3499145507817	339.7425537109376	1584.078002929688	754.255554199219	343.907440185547	1607.315795898438	713.6712646484377	325.1832275390626	1649.423950195313	371.427215576172	269.3245239257814	1613.177612304688	321.9746093750001	271.2967224121095	1650.554443359376	293.4247436523439	255.3737945556642	1746.626464843751	18.40752410888673	237.9607391357423	1801.813598632813	34.7300262451172	194.2268218994142	1527.90771484375	685.0628662109377	9.648996353149418	1548.582397460938	609.0234985351565	12.86334705352784	1414.086669921875	401.0730895996096	17.2873764038086	1366.857055664063	398.8392028808596	32.01514053344728	1368.6455078125	336.5266723632814	27.30692672729494	1175.959838867188	71.7119064331055	104.491065979004	1147.4853515625	97.85310363769537	62.68623352050784	1453.312255859375	1047.241577148438	147.8135223388672	1418.781372070313	1254.588989257813	143.3847045898438	1467.458984375	1110.807495117188	160.5715332031251	1139.823974609375	268.0249633789064	98.62913513183599	1459.993408203125	1055.982299804688	197.9538879394532	1505.797119140625	647.6146240234377	34.94457244873048	1470.420776367188	1511.928344726563	137.938705444336	1587.438232421876	26.28182029724123	159.5861511230469	1460.474365234375	1429.604125976563	309.0616455078126	
349	1.74	1597.334106445313	1428.10888671875	145.0905151367188	1654.483520507813	1234.921020507813	147.6394348144532	1644.230468750001	1045.419067382813	292.4945678710939	1472.476684570313	1072.631958007813	218.9680480957032	1463.047119140625	1056.791015625	120.7079391479493	1627.836059570313	994.599243164063	21.87348175048829	1640.818237304688	786.256958007813	340.0779418945314	1587.726440429688	754.654479980469	344.1157226562501	1610.599121093751	713.822448730469	325.4948730468751	1650.576904296876	371.4092102050782	269.6200256347657	1614.046386718751	322.1241455078126	271.4807128906251	1651.365844726563	293.4127502441407	255.6522674560548	1746.596435546876	18.31646919250489	238.0681762695314	1801.815551757813	34.66367340087892	194.2292938232423	1537.340209960938	685.3387451171877	9.881466865539554	1559.309936523438	609.6905517578127	12.75132083892823	1428.186279296875	402.7599182128909	16.93053054809571	1380.870849609375	400.8835754394534	31.81055450439455	1382.2373046875	338.5490112304689	27.05320167541505	1191.114379882813	73.94680786132815	100.9973526000977	1162.346557617188	100.7619705200196	59.75351333618167	1459.603149414063	1048.03076171875	148.2532196044922	1425.22119140625	1255.4208984375	143.6095886230469	1473.813232421875	1111.585815429688	161.004623413086	1152.058471679688	270.0284729003907	98.94145202636724	1466.195678710938	1056.785034179688	198.3840179443361	1516.252685546875	647.5877075195315	35.47034835815431	1476.914184570313	1512.751220703125	137.8233032226563	1587.324951171876	26.28976821899415	159.6884460449219	1467.200439453125	1430.431884765625	309.1113281250001	
